# xmcd CD database file
#
# Track frame offsets:
#	150
#	9428
#	22699
#	35287
#	49291
#	59120
#	75267
#	89447
#	99446
#	111753
#	124034
#	135360
#	148835
#	161456
#	176434
#	187537
#
# Disc length: 2791 seconds
#
# Revision: 0
# Processed by: cddbd v1.5.2PL0 Copyright (c) Steve Scherf et al.
# Submitted via: CDex 1.70beta2
#
DISCID=bc0ae510
DTITLE=Fumani - Fumani Sings Country
DYEAR=1900
DGENRE=Country
TTITLE0=Walkin After Midnight
TTITLE1=Just Another Woman in Love
TTITLE2=Sweet Dreams
TTITLE3=Shes Got You
TTITLE4=Blue Moon of Kentucky
TTITLE5=You Needed Me
TTITLE6=Have Mercy
TTITLE7=Seven Lonely Days
TTITLE8=Crazy
TTITLE9=I Just Fall in Love Again
TTITLE10=Love Letters In The Sand
TTITLE11=I Fall To Pieces
TTITLE12=Someday Youll Want Me to Want You
TTITLE13=The Wayward Wind
TTITLE14=Your Cheatin Heart
TTITLE15=Fumani - 016 Though the Years
EXTD=
EXTT0=
EXTT1=
EXTT2=
EXTT3=
EXTT4=
EXTT5=
EXTT6=
EXTT7=
EXTT8=
EXTT9=
EXTT10=
EXTT11=
EXTT12=
EXTT13=
EXTT14=
EXTT15=
PLAYORDER=
